<svg height='100px' width='100px'  fill="#ffffff" xmlns="http://www.w3.org/2000/svg" xmlns:xlink="http://www.w3.org/1999/xlink" xml:space="preserve" style="shape-rendering:geometricPrecision;text-rendering:geometricPrecision;image-rendering:optimizeQuality;" viewBox="0 0 45.0861 67.478" x="0px" y="0px" fill-rule="evenodd" clip-rule="evenodd"><defs><style type="text/css">
   
    .fil0 {fill:#ffffff}
   
  </style></defs><g><path class="fil0" d="M34.7958 42.7509l0 24.727 -11.4517 0 0 -14.5497 -1.46193 0 0 14.5497 -11.4517 0 0 -24.727 24.3654 0zm-24.3246 -0.835212l0.819199 -7.26653 1.47585e-005 0 1.61332 -14.3107c0.221628,-0.959729 0.982679,-1.53665 1.96993,-1.52197l2.25935 0 0.757789 0 9.07138 0 0.645787 0 2.74466 0c0.987254,-0.0146847 1.7483,0.562239 1.96993,1.52197l0.00842709 0.0748107 1.6049 14.2359 1.47585e-005 0 0.819199 7.26653 -24.2839 0zm0.0678005 -8.05661l-1.18595 4.2227c-0.171744,0.536766 -0.526022,0.882292 -1.04546,0.749716l-0.130952 -0.0346529 -0.27653 1.02012c0.91811,0.794582 1.47682,1.95647 1.61428,3.24864 0.139202,1.30852 -1.14232,4.5674 -3.44097,3.77636 -1.86655,-0.642333 1.34925,-5.27386 -0.971197,-5.51638 -0.917742,-0.147629 -1.35108,0.865068 -1.43224,1.54259 -0.71834,5.99724 -3.88474,2.58529 -3.65854,0.197439 0.190252,-2.00823 1.51996,-3.69886 3.56614,-4.18911l0.329365 -1.20947 -0.333852 -0.0883443c-0.574149,-0.199166 -0.687583,-0.815583 -0.392472,-1.43199l4.53373 -11.6922c0.906628,-1.81231 2.0399,-3.70618 4.33619,-4.00337l-1.51155 13.4079zm22.6372 -13.4039c2.25445,0.310489 3.29309,2.1954 4.19553,3.99934l4.53373 11.6922c0.295111,0.616403 0.181677,1.23282 -0.392472,1.43199l-0.333852 0.0883443 0.329365 1.20949c2.04618,0.490233 3.37588,2.18086 3.56614,4.18909 0.226203,2.38785 -2.9402,5.7998 -3.65854,-0.197439 -0.0811569,-0.677518 -0.514495,-1.69022 -1.43224,-1.54259 -2.32045,0.242526 0.895353,4.87405 -0.971197,5.51638 -2.29865,0.79104 -3.58017,-2.46784 -3.44097,-3.77636 0.137461,-1.29216 0.696172,-2.45406 1.61428,-3.24864l-0.27653 -1.02012 -0.130952 0.0346529c-0.51944,0.132575 -0.873717,-0.21295 -1.04546,-0.749716l-0.989822 -3.5244 0.0225214 -0.00255322 -1.58953 -14.0996zm-15.2854 -2.25604l0 -1.3364 -1.10798 0c-1.59951,0 -2.90817,-1.30866 -2.90817,-2.90817l0 -7.81099c0,-1.59951 1.30866,-2.90817 2.90817,-2.90817l1.10798 0 0 -2.74332c0,-0.270685 0.192318,-0.492122 0.427391,-0.492122l8.21659 0c0.235073,0 0.427391,0.221436 0.427391,0.492122l0 2.74332 1.10799 0c1.59951,0 2.90817,1.30866 2.90817,2.90817l0 7.81099c0,1.59951 -1.30866,2.90817 -2.90817,2.90817l-1.10799 0 0 1.3364 -9.07138 0zm4.53386 -5.40248c0.558018,0 1.16793,-0.0974945 1.70427,-0.192952 0.621583,-0.11063 0.792427,-0.219872 1.31294,-0.483754 0.577249,-0.292631 0.677872,0.299996 0.337128,0.582252 -0.287008,0.237744 -0.762895,0.543599 -1.63115,0.68838 -0.550034,0.0917092 -1.12976,0.158683 -1.74118,0.161915 -0.542374,-0.000619856 -1.09006,-0.0453233 -1.64418,-0.143202 -0.5998,-0.124163 -1.19079,-0.26794 -1.67068,-0.653712 -0.375456,-0.301826 -0.263941,-0.889317 0.33853,-0.652945 0.564084,0.221318 0.731253,0.377552 1.3504,0.501065 0.653653,0.130391 1.08588,0.192952 1.64392,0.192952zm2.87122 -5.92882c0.651941,0 1.18066,0.528723 1.18066,1.18068 0,0.651971 -0.528723,1.18068 -1.18066,1.18068 -0.651971,0 -1.18069,-0.528708 -1.18069,-1.18068 0,-0.651956 0.528723,-1.18068 1.18069,-1.18068zm-5.6384 0c0.651971,0 1.18069,0.528723 1.18069,1.18068 0,0.651971 -0.528723,1.18068 -1.18069,1.18068 -0.651941,0 -1.18066,-0.528708 -1.18066,-1.18068 0,-0.651956 0.528723,-1.18068 1.18066,-1.18068z"></path></g></svg>