<svg height='100px' width='100px'  fill="#004f62" xmlns="http://www.w3.org/2000/svg" xmlns:xlink="http://www.w3.org/1999/xlink" version="1.1" x="0px" y="0px" viewBox="0 0 32 32" enable-background="new 0 0 32 32" xml:space="preserve"><path fill="none" d="M16,12c-3.3,0-6,2.7-6,6s2.7,6,6,6s6-2.7,6-6S19.3,12,16,12z"></path><path d="M27,8h-3.4l-1.2-2.3c-0.5-1-1.5-1.7-2.7-1.7h-7.5c-1.1,0-2.2,0.6-2.7,1.7L8.4,8H5c-1.7,0-3,1.3-3,3v14c0,1.6,1.3,3,3,3h22  c1.7,0,3-1.4,3-3V11C30,9.3,28.7,8,27,8z M16,24c-3.3,0-6-2.7-6-6s2.7-6,6-6s6,2.7,6,6S19.3,24,16,24z M27,12h-2c-0.6,0-1-0.4-1-1  s0.4-1,1-1h2c0.6,0,1,0.4,1,1S27.6,12,27,12z"></path></svg>