<svg height='100px' width='100px'  fill="#004f62" xmlns="http://www.w3.org/2000/svg" data-name="Layer 138" viewBox="0 0 100 100" x="0px" y="0px"><defs><style>.cls-1{fill-rule:evenodd;}</style></defs><title>Artboard 2 copy 77</title><g><path class="cls-1" d="M93.11,46,76.27,29.18a5.61,5.61,0,0,0-7.93,7.93L81.2,50,68.34,62.81a5.6,5.6,0,0,0,7.93,7.92L93.11,53.92A5.61,5.61,0,0,0,93.11,46ZM31.66,29.18a5.61,5.61,0,0,0-7.93,0L6.89,46a5.61,5.61,0,0,0,0,7.93L23.73,70.73a5.6,5.6,0,1,0,7.93-7.92L18.8,50,31.66,37.11A5.61,5.61,0,0,0,31.66,29.18ZM60.21,13.92A5.65,5.65,0,0,0,53,17.3L36.41,78.83A5.66,5.66,0,0,0,47,82.7L63.59,21.17A5.65,5.65,0,0,0,60.21,13.92Z"></path></g></svg>