<svg height='100px' width='100px'  fill="#004f62" xmlns="http://www.w3.org/2000/svg" xmlns:xlink="http://www.w3.org/1999/xlink" version="1.1" x="0px" y="0px" viewBox="0 0 100 100" enable-background="new 0 0 100 100" xml:space="preserve"><path fill="#004f62" d="M93.41,2.085C75.657,4.417,57.904,6.751,40.15,9.083c-4.655,0.611-6.792,4.931-6.371,8.539  c0,16.296,0,32.592,0,48.89c-11.174-8.488-32.393-3.785-33.48,13.721c-0.709,11.429,10.187,17.75,20.116,17.75  c11.024,0,19.08-5.647,20.036-16.901c0.054-0.263,0.087-0.541,0.08-0.849c0.008-0.168-0.011-0.317-0.022-0.473  c0.009-0.113,0.033-0.217,0.033-0.334c0-18.959,0-37.914,0-56.871c17.476-2.295,34.951-4.593,52.427-6.888  c-0.002,13.523-0.002,27.046-0.002,40.567c-11.175-8.484-32.392-3.78-33.479,13.726c-0.709,11.429,10.187,17.748,20.115,17.748  c11.024,0,19.08-5.647,20.037-16.899c0.034-0.172,0.047-0.359,0.058-0.55c0.006-0.103,0.028-0.192,0.028-0.3  c0-20.218,0-40.436,0.002-60.654C99.838,5.471,98.275,1.446,93.41,2.085z"></path></svg>