<svg height='100px' width='100px'  fill="#004f62" xmlns="http://www.w3.org/2000/svg" xmlns:xlink="http://www.w3.org/1999/xlink" version="1.1" x="0px" y="0px" viewBox="0 0 64 64" style="enable-background:new 0 0 64 64;" xml:space="preserve"><style type="text/css">
	.st0{fill:none;}
</style><rect x="31.2" y="4.7" class="st0" width="0.6" height="24.1"></rect><rect x="29.2" y="4.7" class="st0" width="0.6" height="24.1"></rect><rect x="33.2" y="4.7" class="st0" width="0.6" height="24.1"></rect><rect x="35.2" y="4.7" class="st0" width="0.6" height="24.1"></rect><path d="M59.7,29.9c0-0.3-0.1-0.6-0.3-0.8c-0.2-0.2-0.5-0.3-0.8-0.3H37.2V8.1l21.9,2.3l0.2-1.6l-22-2.4V4.7h22.1V3H23.5v1.7h4.3v0.8  L23.6,5l-0.2,1.6l4.4,0.5v21.6H5.4c-0.3,0-0.6,0.1-0.8,0.3c-0.2,0.2-0.3,0.5-0.3,0.8c0,0.9,0.1,1.7,0.1,2.6h55.2  C59.7,31.6,59.7,30.8,59.7,29.9z M29.9,28.8h-0.6V4.7h0.6V28.8z M31.8,28.8h-0.6V4.7h0.6V28.8z M33.8,28.8h-0.6V4.7h0.6V28.8z   M35.9,28.8h-0.6V4.7h0.6V28.8z"></path><path d="M4.9,35.7c0.4,1.8,0.9,3.6,1.6,5.4c0.7,1.7,1.6,3.3,2.6,4.9c1,1.5,2.1,2.9,3.4,4.2c1.3,1.3,2.6,2.5,4.1,3.5  c1.2,0.9,2.5,1.6,3.8,2.2v4.6c0,0.3,0.2,0.5,0.5,0.5h22.2c0.3,0,0.5-0.2,0.5-0.5v-4.6c1.3-0.6,2.6-1.4,3.8-2.2  c1.5-1,2.8-2.2,4.1-3.5c1.3-1.3,2.4-2.7,3.4-4.2c1-1.5,1.9-3.2,2.6-4.9c0.7-1.7,1.3-3.5,1.6-5.4c0.1-0.7,0.3-1.4,0.4-2.2H4.5  C4.6,34.2,4.7,35,4.9,35.7z"></path></svg>