<?xml version="1.0" standalone="no"?>
<!DOCTYPE svg PUBLIC "-//W3C//DTD SVG 20010904//EN"
 "http://www.w3.org/TR/2001/REC-SVG-20010904/DTD/svg10.dtd">
<svg version="1.0" xmlns="http://www.w3.org/2000/svg"
 width="600.000000pt" height="600.000000pt" viewBox="0 0 600.000000 600.000000"
 preserveAspectRatio="xMidYMid meet">
<metadata>
Created by potrace 1.11, written by Peter Selinger 2001-2013
</metadata>
<g transform="translate(0.000000,600.000000) scale(0.100000,-0.100000)"
fill="#000000" stroke="none">
<path d="M2415 5324 c-402 -287 -487 -348 -1025 -730 -146 -103 -319 -226
-385 -274 l-120 -87 -3 -1328 c-1 -956 1 -1332 9 -1341 6 -7 72 -46 147 -85
168 -88 285 -150 377 -199 39 -21 122 -65 185 -98 209 -109 280 -147 348 -182
37 -20 126 -67 197 -104 72 -38 136 -73 143 -79 6 -5 12 -6 12 -2 0 5 8 1 18
-7 9 -8 60 -36 112 -63 52 -26 100 -51 105 -55 6 -4 82 -44 170 -90 88 -45
183 -95 210 -110 161 -87 226 -120 240 -120 14 0 52 21 80 43 14 11 115 83
820 584 209 148 399 282 421 299 23 16 92 65 154 109 62 44 122 87 134 95 216
152 343 245 351 258 6 11 10 500 10 1331 0 1258 -1 1316 -18 1338 -10 13 -22
23 -26 23 -4 0 -52 24 -107 53 -54 29 -166 88 -249 132 -82 43 -222 116 -310
163 -340 180 -483 255 -630 332 -66 34 -133 70 -150 80 -16 9 -93 50 -170 90
-77 40 -162 85 -190 100 -27 15 -105 56 -173 91 -67 35 -146 77 -175 92 -29
16 -63 30 -77 32 -19 2 -116 -62 -435 -291z"/>
</g>
</svg>
